<svg width="206" height="44" viewBox="0 0 206 44" fill="none" xmlns="http://www.w3.org/2000/svg">
<path fill-rule="evenodd" clip-rule="evenodd" d="M33.9349 21.3873C33.9349 21.3873 33.7156 21.3702 33.5751 21.3592C33.4345 21.3483 33.2152 21.3312 33.2152 21.3312C31.5004 21.3317 30.087 22.0713 28.8373 22.8563C28.5157 23.0584 28.2082 23.2605 27.9086 23.4574C26.9972 24.0564 26.1594 24.6071 25.2234 24.9591L25.2128 24.9631L25.2023 24.9675C22.9528 25.8955 20.2655 25.7862 18.437 24.2889L18.4303 24.2834L18.4234 24.278C15.8436 22.2679 15.1222 18.8602 16.6318 15.9536L16.6335 15.9502L16.6353 15.9468C17.9754 13.2979 20.6461 12.0114 23.6686 11.6171L23.6709 11.6168L23.6732 11.6165C23.6899 11.6142 23.7067 11.6119 23.7237 11.6096C24.381 11.5197 25.2433 11.4018 25.9742 11.0686C26.7725 10.7046 27.4727 10.0555 27.6432 8.92698L27.6445 8.9183L27.6456 8.90959C27.7639 7.97256 27.5735 7.18254 27.1118 6.55832C26.6623 5.9506 26.0112 5.57536 25.3409 5.34139C24.0189 4.87991 22.3893 4.88906 21.2606 4.95859L21.2556 4.9589L21.2505 4.95929C17.8507 5.21703 14.5762 6.61551 11.9396 8.71431L11.9381 8.71558L11.9365 8.71685C9.1822 10.9349 7.23107 14.0577 6.27972 17.4259L6.27951 17.4266L6.2793 17.4274C5.08556 21.6886 5.68991 26.389 7.81318 30.2464C9.68844 33.6816 12.806 36.355 16.3923 37.8337C22.5316 40.4075 30.1734 38.8958 34.8435 34.1367L34.8491 34.1311L34.8545 34.1253C36.6334 32.2308 38.2879 29.7102 38.332 26.8383C38.3819 24.2915 36.54 21.7886 33.9349 21.3873Z" fill="url(#paint0_linear_1_523)"/>
<path fill-rule="evenodd" clip-rule="evenodd" d="M18.1108 18.9249C18.1108 16.5186 20.0609 14.5679 22.4664 14.5679C24.872 14.5679 26.822 16.5186 26.822 18.9249C26.822 21.3312 24.872 23.2819 22.4664 23.2819C20.0609 23.2819 18.1108 21.3312 18.1108 18.9249Z" fill="url(#paint1_linear_1_523)"/>
<path d="M172.627 21.0852C172.627 27.8512 168.104 31.2338 163.861 31.2338C160.6 31.2338 158.496 29.3168 158.041 28.2269H157.936V38H153.238V11.3116H157.936V13.9433H158.041C159.622 13.8644 160.601 10.9363 163.862 10.9363C168.104 10.9358 172.627 14.3186 172.627 21.0852ZM167.964 21.0852C167.964 17.4387 165.509 15.4464 162.914 15.4464C160.25 15.4464 157.831 17.4012 157.831 21.0852C157.831 24.7691 160.25 26.7229 162.914 26.7229C165.509 26.7229 167.964 24.7306 167.964 21.0852Z" fill="currentColor"/>
<path d="M146.829 24.8092C143.993 27.2012 141.114 27.7334 138.502 26.3419C137.768 25.9897 137.147 25.4404 136.707 24.7555C136.268 24.0706 136.027 23.2769 136.012 22.4631H150.529L150.485 22.0571C150.432 21.5751 150.393 21.1272 150.355 20.7032C150.276 19.8288 150.209 19.0744 150.066 18.3122C149.781 16.7337 149.085 15.2582 148.047 14.0353C147.01 12.8124 145.667 11.8854 144.156 11.3483C142.627 10.7991 140.981 10.6634 139.383 10.9552C137.785 11.247 136.293 11.9557 135.057 13.0097C131.137 16.2916 130.205 22.5981 132.983 27.0692C134.707 29.8413 138.091 31.4321 141.534 31.4314C143.11 31.4392 144.668 31.0932 146.092 30.4193C147.02 29.9408 147.904 29.3809 148.732 28.7467C149.106 28.4777 149.459 28.2237 149.817 27.9854L150.187 27.7417L147.088 24.5924L146.829 24.8092ZM136.4 18.7693C136.658 16.4037 138.442 15.0483 141.239 15.12C143.843 15.1872 145.373 16.5109 145.491 18.7693H136.4Z" fill="currentColor"/>
<path d="M88.2161 21.1055C88.0478 15.0817 83.9191 11.1146 77.6969 10.9986C76.3308 10.945 74.9682 11.1715 73.6927 11.6638C72.4172 12.1562 71.2562 12.9042 70.2804 13.862C69.3047 14.8197 68.5352 15.9668 68.0192 17.2329C67.5031 18.4989 67.2514 19.8571 67.2796 21.224C67.2639 22.5337 67.5086 23.8335 67.9995 25.0478C68.4905 26.2621 69.2179 27.3668 70.1394 28.2975C71.1288 29.2636 72.2997 30.0239 73.5846 30.5349C74.8694 31.0459 76.2428 31.2971 77.6253 31.2744H77.6473C79.1087 31.3074 80.5619 31.0457 81.92 30.5047C83.2782 29.964 84.5134 29.1551 85.5523 28.1265C86.4458 27.1957 87.1424 26.0942 87.6003 24.8877C88.0579 23.6813 88.2674 22.3949 88.2161 21.1055ZM83.5506 21.1772C83.5738 21.9429 83.4432 22.7055 83.166 23.4198C82.8891 24.134 82.471 24.7853 81.9376 25.3349C81.3809 25.8648 80.7243 26.2785 80.0062 26.5518C79.288 26.8251 78.5223 26.9525 77.7545 26.9266H77.7086C74.3226 26.9062 71.9622 24.5707 71.9684 21.2459C71.9397 20.4453 72.0739 19.6472 72.3627 18.8999C72.6515 18.1526 73.089 17.4718 73.6489 16.8987C74.4907 16.132 75.5361 15.6245 76.6592 15.4371C77.7824 15.2496 78.9355 15.3901 79.9809 15.8418C81.026 16.2935 81.9188 17.037 82.552 17.9834C83.1852 18.9298 83.5319 20.0387 83.5506 21.1772Z" fill="currentColor"/>
<path d="M64.3508 25.9458L64.1924 25.647L63.8819 25.7811C60.2506 27.3494 57.3269 27.7915 54.8658 24.8551C53.3311 23.0265 53.1425 19.8762 54.4535 17.9755C56.5633 14.9163 59.4412 14.4568 63.786 16.4856L64.0935 16.6289L66.1404 13.0078L65.848 12.8206C61.103 9.77073 54.2649 10.5485 51.214 14.4855C47.973 18.667 48.3386 25.2781 51.9938 28.6331C53.9554 30.4329 56.8586 31.3594 59.6424 31.3594C62.0071 31.3594 64.2855 30.6907 65.8251 29.3208L66.04 29.1298L65.9055 28.8759C65.4196 27.9591 64.9347 27.0468 64.3508 25.9458Z" fill="currentColor"/>
<path d="M128.177 26.1529L127.909 25.6471L127.598 25.7811C123.967 27.3494 121.044 27.7919 118.582 24.8551C117.047 23.0265 116.859 19.8762 118.169 17.9755C120.279 14.9163 123.157 14.4568 127.503 16.4856L127.81 16.6289L129.857 13.0078L129.564 12.8206C124.82 9.77073 117.981 10.5485 114.93 14.4855C111.689 18.667 112.055 25.2781 115.71 28.6331C117.672 30.4329 120.576 31.3595 123.359 31.3595C125.724 31.3595 128.002 30.6907 129.541 29.3208L129.756 29.1298L129.622 28.8759C129.166 28.0191 128.712 27.1628 128.177 26.1529Z" fill="currentColor"/>
<path d="M100.527 15.5233C100.623 15.5233 100.718 15.5261 100.813 15.5316C101.988 15.6196 103.085 16.1505 103.883 17.017C104.681 17.8835 105.119 19.0208 105.11 20.1986L105.138 30.9835H109.989L110.005 20.0451C110.027 18.243 109.526 16.4732 108.564 14.9492C107.806 13.7526 106.759 12.7651 105.521 12.0774C104.282 11.3897 102.891 11.0237 101.474 11.0128C98.213 11.0128 97.2341 13.9409 95.6535 14.0198H95.5482V11.3885H90.8494V30.9835H95.9021V20.2127C95.8923 19.0312 96.3326 17.8902 97.1334 17.0212C97.9339 16.1524 99.0355 15.6206 100.214 15.534C100.318 15.5262 100.422 15.5233 100.527 15.5233Z" fill="currentColor"/>
<path d="M185.371 27.1875C185.238 27.2208 185.047 27.2601 184.796 27.3055C184.545 27.3508 184.27 27.372 183.971 27.372C183.575 27.372 183.215 27.3085 182.888 27.1875C182.565 27.0636 182.302 26.8338 182.105 26.4952C181.906 26.1566 181.806 25.6638 181.806 25.0228V14.7275C181.806 14.6278 181.887 14.547 181.987 14.547H185.806V10.8524H181.987C181.887 10.8524 181.806 10.7716 181.806 10.6719V6H177.032V10.6719C177.032 10.7716 176.951 10.8524 176.852 10.8524H170.415C171.983 11.8723 173.885 14.547 173.885 14.547H176.852C176.951 14.547 177.032 14.6278 177.032 14.7275V25.8149C177.023 27.0817 177.298 28.1369 177.855 28.9804C178.414 29.8239 179.173 30.4467 180.131 30.8488C181.09 31.2479 182.169 31.4293 183.363 31.396C184.04 31.3779 184.615 31.3144 185.086 31.2116C185.555 31.1058 187.223 30.6525 187.223 30.6525C186.275 29.6275 185.371 27.1875 185.371 27.1875Z" fill="currentColor"/>
<path d="M202.927 28.9577L203.141 28.7667L203.12 28.7252C203.025 28.8348 202.927 28.9415 202.825 29.0452C202.859 29.0162 202.893 28.9873 202.927 28.9577Z" fill="currentColor"/>
<path d="M203.625 21.5279C202.688 20.6299 201.261 19.9739 199.344 19.5597L195.888 18.822C194.857 18.5861 194.123 18.2808 193.678 17.912C193.242 17.5499 193.025 17.0798 193.025 16.505C193.234 14.188 196.771 14.468 199.546 15.3622C200.148 15.5562 200.782 15.8093 201.451 16.1217L201.758 16.265L203.805 12.6439L203.512 12.4567C201.48 11.1502 199.063 10.5462 196.725 10.592C196.635 10.5905 196.545 10.5894 196.454 10.5894C194.836 10.5894 193.409 10.8434 192.173 11.3483C190.939 11.8532 189.975 12.5667 189.285 13.4858C189.13 13.6915 188.993 13.9055 188.874 14.1278C188.459 14.8989 188.256 15.7697 188.263 16.7389C188.254 18.2143 188.714 19.4357 189.648 20.4002C190.087 20.8538 190.64 21.2454 191.305 21.5752C192.05 21.9443 192.936 22.236 193.962 22.45L197.418 23.1756C198.349 23.3781 199.039 23.6684 199.483 24.0463C199.927 24.4242 200.148 24.9049 200.148 25.4854C200.148 25.6637 200.125 25.8344 200.078 25.9977C199.945 26.4628 199.624 26.8671 199.114 27.2118C198.422 27.6804 197.509 27.9132 196.375 27.9132C195.274 27.9132 194.383 27.6804 193.696 27.2118C193.019 26.7524 192.575 26.0751 192.36 25.1773L187.884 26.4644C188.294 27.914 189.131 29.0769 190.398 29.9509C191.913 30.9939 193.908 31.514 196.39 31.514C198.077 31.514 199.574 31.2419 200.874 30.6946C201.883 30.273 202.72 29.7223 203.388 29.0443C203.49 28.9407 203.588 28.834 203.682 28.7243C203.767 28.6256 203.849 28.5246 203.927 28.4211C204.662 27.4476 205.034 26.3259 205.043 25.0501C205.034 23.5989 204.562 22.4228 203.625 21.5279Z" fill="currentColor"/>
<defs>
<linearGradient id="paint0_linear_1_523" x1="11.5049" y1="8.19185" x2="34.6696" y2="36.0355" gradientUnits="userSpaceOnUse">
<stop stop-color="#FFCB00"/>
<stop offset="1" stop-color="#FF363D"/>
</linearGradient>
<linearGradient id="paint1_linear_1_523" x1="19.197" y1="23.8315" x2="22.9556" y2="15.6416" gradientUnits="userSpaceOnUse">
<stop stop-color="#FF363D"/>
<stop offset="1" stop-color="#FFCB00"/>
</linearGradient>
</defs>
</svg>