<svg width="66" height="15" viewBox="0 0 66 15" fill="none" id="svg119458581_6191"><path d="M5.145 2.835a6.867 6.867 0 0 0-.19-2.223.242.242 0 0 1 .164-.292L6.19.01a.23.23 0 0 1 .289.16c.255.983.334 2.011.223 3.034a6.113 6.113 0 0 1-1.557-.369Zm.699 3.263a8.413 8.413 0 0 1-5.286 4.329.23.23 0 0 1-.284-.17L.007 9.175a.242.242 0 0 1 .171-.289 6.827 6.827 0 0 0 4.068-3.167l.01-.017.007-.013a9.076 9.076 0 0 0 1.58.409Zm2.975 2.804a8.413 8.413 0 0 1 5.286-4.329.23.23 0 0 1 .284.17l.266 1.082a.242.242 0 0 1-.17.289 6.827 6.827 0 0 0-4.069 3.167l-.01.016-.007.014a9.076 9.076 0 0 0-1.58-.409Zm.699 3.263c-.06.75.007 1.501.19 2.223a.242.242 0 0 1-.165.292l-1.071.31a.23.23 0 0 1-.288-.16 8.453 8.453 0 0 1-.224-3.034 6.108 6.108 0 0 1 1.558.369Zm4.966-3.279a6.867 6.867 0 0 1-2.02-.947 6.113 6.113 0 0 0-1.098 1.164 8.455 8.455 0 0 0 2.739 1.323.23.23 0 0 0 .284-.169l.266-1.082a.242.242 0 0 0-.17-.289ZM9.043 6.512c.079.137.161.27.246.4.35-.426.733-.815 1.144-1.163A6.827 6.827 0 0 1 9.707.612.242.242 0 0 0 9.543.32L8.472.01a.23.23 0 0 0-.288.16 8.413 8.413 0 0 0 .859 6.342ZM5.62 8.488a8.565 8.565 0 0 0-.247-.4c-.35.426-.733.815-1.144 1.164l.009.015.008.014a6.827 6.827 0 0 1 .709 5.107.242.242 0 0 0 .164.292l1.071.31a.23.23 0 0 0 .289-.16 8.413 8.413 0 0 0-.86-6.342ZM.178 6.114c.716.203 1.4.521 2.02.947a6.113 6.113 0 0 0 1.099-1.164 8.454 8.454 0 0 0-2.74-1.323.23.23 0 0 0-.283.169L.007 5.825a.242.242 0 0 0 .171.289Zm11.93-4.116a6.866 6.866 0 0 1-1.83 1.276c.083.52.235 1.035.46 1.534a8.454 8.454 0 0 0 2.514-1.71.23.23 0 0 0-.004-.331l-.804-.773a.242.242 0 0 0-.336.004ZM7.331 5.524c.158 0 .315-.005.47-.013a9.077 9.077 0 0 1-.436-1.573h-.034a6.827 6.827 0 0 1-4.777-1.94.242.242 0 0 0-.335-.004l-.804.773a.23.23 0 0 0-.005.33 8.413 8.413 0 0 0 5.921 2.427Zm0 3.952c-.158 0-.315.005-.47.013.194.517.34 1.043.436 1.573h.034c1.858 0 3.542.739 4.777 1.94.093.09.242.094.336.004l.804-.773a.23.23 0 0 0 .004-.33 8.413 8.413 0 0 0-5.92-2.427Zm-4.777 3.526a6.865 6.865 0 0 1 1.83-1.276 6.113 6.113 0 0 0-.459-1.534 8.453 8.453 0 0 0-2.515 1.71.23.23 0 0 0 .005.331l.804.773c.093.09.242.086.335-.004ZM24.996 4.38c.104 0 .189.084.189.188v1.074a.189.189 0 0 1-.189.19h-5.145a.189.189 0 0 1-.189-.19V4.568a.19.19 0 0 1 .189-.189h5.145Zm-3.576 9.956a.189.189 0 0 1-.19-.19V3.136c0-.601.135-1.1.403-1.498a2.52 2.52 0 0 1 1.07-.9c.44-.2.913-.299 1.419-.299.389 0 .713.03.972.09.167.04.306.077.42.112.093.03.141.13.112.223l-.344 1.121a.203.203 0 0 1-.249.132 5.13 5.13 0 0 0-.146-.038 1.98 1.98 0 0 0-.525-.058c-.484 0-.832.12-1.044.363-.207.242-.311.594-.311 1.056v10.708a.189.189 0 0 1-.189.188H21.42Zm7.803.226a4.046 4.046 0 0 1-1.718-.356 2.883 2.883 0 0 1-1.212-1.03c-.298-.454-.447-1.008-.447-1.66 0-.566.11-1.029.33-1.387a2.39 2.39 0 0 1 .882-.856 4.652 4.652 0 0 1 1.238-.467c.458-.103.92-.185 1.387-.246.6-.073 1.087-.132 1.459-.175.375-.043.648-.115.816-.214.173-.104.26-.274.26-.512v-.052c0-.592-.165-1.052-.493-1.38-.329-.329-.823-.493-1.485-.493-.682 0-1.22.149-1.614.447-.334.256-.58.535-.739.836a.203.203 0 0 1-.23.105l-1.312-.36a.182.182 0 0 1-.122-.249 3.4 3.4 0 0 1 .906-1.252 3.879 3.879 0 0 1 1.433-.772 5.706 5.706 0 0 1 1.64-.24c.367 0 .769.044 1.205.13.437.087.85.25 1.238.493.393.242.715.594.966 1.056.255.458.383 1.063.383 1.815v6.404a.189.189 0 0 1-.19.188H32.44a.189.189 0 0 1-.19-.188v-1.118a.048.048 0 0 0-.047-.048.049.049 0 0 0-.043.026 2.89 2.89 0 0 1-.531.693 3.068 3.068 0 0 1-.966.616c-.398.164-.877.246-1.44.246Zm.343-1.484c.566 0 1.046-.11 1.44-.33.397-.225.7-.515.907-.87.207-.358.311-.738.311-1.14v-.863c0-.167-.254-.312-.415-.265a7.922 7.922 0 0 1-.7.156c-.264.043-.52.08-.771.11-.247.03-.452.056-.616.078-.38.051-.733.134-1.057.246a1.826 1.826 0 0 0-.777.493c-.195.216-.292.505-.292.868 0 .502.186.88.557 1.135.372.255.843.382 1.413.382Zm6.828 1.257a.189.189 0 0 1-.189-.188V1.249a.19.19 0 0 1 .189-.189h1.398a.19.19 0 0 1 .19.19v4.652c0 .043.034.078.077.078a.079.079 0 0 0 .068-.039c.111-.186.263-.404.457-.654.207-.273.5-.513.875-.72.376-.212.88-.318 1.51-.318.817 0 1.543.206 2.178.616.636.41 1.133 1 1.491 1.77.359.765.538 1.68.538 2.748 0 1.063-.179 1.98-.538 2.749-.354.769-.847 1.363-1.478 1.782-.63.415-1.354.623-2.171.623-.618 0-1.12-.104-1.504-.312-.38-.207-.678-.447-.894-.72a6.796 6.796 0 0 1-.454-.656.113.113 0 0 0-.097-.056.11.11 0 0 0-.11.11v1.244a.189.189 0 0 1-.19.188h-1.346Zm1.555-4.978c0 .722.104 1.355.311 1.9.212.544.516.97.914 1.277.402.306.895.46 1.478.46.6 0 1.104-.16 1.51-.48.406-.32.713-.754.92-1.303.208-.553.312-1.17.312-1.854 0-.674-.102-1.279-.305-1.815-.203-.54-.508-.968-.914-1.283-.406-.316-.914-.473-1.523-.473-.588 0-1.083.149-1.485.447-.401.298-.706.715-.913 1.251-.204.536-.305 1.16-.305 1.873Zm9.021 4.978a.189.189 0 0 1-.188-.188v-9.58a.19.19 0 0 1 .189-.188h1.34a.19.19 0 0 1 .189.189v1.3c0 .033.027.06.06.06a.062.062 0 0 0 .058-.04 2.4 2.4 0 0 1 .951-1.198 2.798 2.798 0 0 1 1.588-.466 8.195 8.195 0 0 1 .653.028.18.18 0 0 1 .164.182v1.324a.207.207 0 0 1-.238.199l-.157-.022a3.749 3.749 0 0 0-.59-.046c-.467 0-.884.098-1.251.292-.363.195-.65.465-.862.81a2.213 2.213 0 0 0-.318 1.18v5.976a.189.189 0 0 1-.189.188h-1.398Zm6.296 0a.189.189 0 0 1-.189-.188v-9.58a.19.19 0 0 1 .19-.188h1.397a.19.19 0 0 1 .19.189v9.579a.189.189 0 0 1-.19.188h-1.398Zm.712-11.538c-.324 0-.6-.108-.83-.324a1.06 1.06 0 0 1-.343-.79c0-.303.114-.562.343-.778.23-.22.506-.33.83-.33.32 0 .594.11.823.33.23.216.344.475.344.778 0 .306-.114.57-.344.79a1.157 1.157 0 0 1-.823.324Zm7.052 11.746c-.95 0-1.77-.22-2.456-.661a4.305 4.305 0 0 1-1.582-1.822c-.367-.773-.551-1.657-.551-2.65 0-1.016.188-1.91.564-2.684.38-.774.912-1.379 1.595-1.815.682-.441 1.484-.662 2.404-.662.735 0 1.392.137 1.971.409.579.268 1.05.646 1.413 1.134.323.435.534.936.63 1.501a.182.182 0 0 1-.181.21h-1.382a.2.2 0 0 1-.188-.144 2.307 2.307 0 0 0-.7-1.061c-.38-.346-.89-.519-1.53-.519-.562 0-1.055.147-1.478.441-.42.294-.748.709-.985 1.245-.234.535-.35 1.166-.35 1.892 0 .744.114 1.388.343 1.932.233.545.56.968.979 1.27.423.299.92.448 1.49.448.381 0 .725-.07 1.032-.208.31-.138.572-.335.784-.59a2.2 2.2 0 0 0 .415-.783.198.198 0 0 1 .187-.143h1.381c.114 0 .202.1.182.211a3.62 3.62 0 0 1-.603 1.46 3.637 3.637 0 0 1-1.38 1.161c-.571.285-1.239.428-2.004.428Z" fill="#4787FF"></path></svg>