<svg viewBox="0 0 85 20" fill="none" xmlns="http://www.w3.org/2000/svg">
<path fill-rule="evenodd" clip-rule="evenodd" d="M9.10326 2.72755C9.06756 2.75592 9.02995 2.78262 8.99048 2.80748L3.51706 6.25439C2.91846 6.63136 2.51232 7.338 2.51232 8.1447C2.51232 8.2045 2.50812 8.26331 2.5 8.32086V15.1261C2.50812 15.1837 2.51232 15.2425 2.51232 15.3023C2.51232 16.5971 3.50033 17.4877 4.52655 17.4877C4.58634 17.4877 4.64515 17.4919 4.7027 17.5H15.2973C15.3549 17.4919 15.4137 17.4877 15.4735 17.4877C16.4996 17.4877 17.4877 16.5971 17.4877 15.3023C17.4877 15.2425 17.4919 15.1837 17.5 15.1261V8.1447C17.5 7.33467 17.0924 6.62367 16.4895 6.24398L11.0161 2.79706C11.0161 2.79705 11.0161 2.79706 11.0161 2.79706C10.4264 2.4257 9.70891 2.40252 9.10326 2.72755ZM19.9835 15.5057C19.8837 17.9425 17.9986 19.8732 15.6814 19.9828C15.6138 19.9941 15.5443 20 15.4735 20H4.52655C4.45569 20 4.38621 19.9941 4.31857 19.9828C2.0014 19.8732 0.11633 17.9425 0.0164751 15.5057C0.00563622 15.4395 0 15.3715 0 15.3023V8.1447C0 8.07519 0.00567518 8.00699 0.0165875 7.94056C0.08192 6.38103 0.892751 4.95263 2.18484 4.13893L7.50923 0.785864C7.55361 0.748321 7.60115 0.713425 7.65175 0.681559C9.09485 -0.227196 10.9052 -0.22718 12.3483 0.681569L17.8217 4.12851C19.1752 4.98086 20 6.50413 20 8.1447V15.3023C20 15.3715 19.9944 15.4395 19.9835 15.5057Z" fill="#8529FF"></path>
<path d="M14.5488 8.62791C14.9614 9.0691 14.9383 9.76123 14.4971 10.1738C13.8444 10.7842 12.5778 11.8922 11.4902 12.8343C10.943 13.3083 10.4358 13.7449 10.0654 14.0631C9.88017 14.2221 9.72908 14.3516 9.62425 14.4414L9.46074 14.5814C9.01458 14.9626 8.34685 14.924 7.94788 14.4936L7.93538 14.4801L7.89577 14.4377C7.86071 14.4003 7.80878 14.345 7.74234 14.2748C7.6094 14.1344 7.41872 13.9347 7.18922 13.6992C6.72868 13.2266 6.11862 12.6168 5.50842 12.054C5.06441 11.6444 5.03648 10.9524 5.44604 10.5084C5.8556 10.0644 6.54756 10.0365 6.99158 10.446C7.64148 11.0455 8.28142 11.6857 8.75585 12.1725L8.82561 12.2442C9.17016 11.948 9.60012 11.5775 10.058 11.1809C11.1531 10.2322 12.3865 9.15267 13.0029 8.57617C13.4441 8.16356 14.1362 8.18672 14.5488 8.62791Z" fill="#8529FF"></path>
<path d="M27.4231 11.5919V16.5247H24.9788V4.13941H29.434C30.8323 4.13941 31.9071 4.50021 32.6583 5.2218C33.4211 5.93156 33.8024 6.81284 33.8024 7.86565C33.8024 8.64638 33.5713 9.37389 33.109 10.0482C32.6468 10.7224 31.9187 11.1838 30.9248 11.4322L34.0105 16.5247H31.1155L28.2205 11.5919H27.4231ZM27.4231 6.05576V9.67554H29.434C30.0465 9.67554 30.5145 9.51584 30.8381 9.19645C31.1617 8.86523 31.3235 8.42163 31.3235 7.86565C31.3235 7.30967 31.1617 6.87199 30.8381 6.5526C30.5145 6.22137 30.0465 6.05576 29.434 6.05576H27.4231Z" fill="currentColor"></path>
<path d="M39.0795 16.6667C37.6811 16.6667 36.5428 16.2053 35.6645 15.2826C34.7862 14.3481 34.347 13.1179 34.347 11.5919C34.347 10.0659 34.7862 8.84748 35.6645 7.93663C36.5543 7.01394 37.6985 6.5526 39.0968 6.5526C40.5068 6.5526 41.6624 7.00211 42.5639 7.90114C43.4653 8.78834 43.916 9.97718 43.916 11.4677C43.916 11.8107 43.8929 12.1301 43.8467 12.4259H36.8433C36.901 13.0646 37.1322 13.5792 37.5367 13.9696C37.9412 14.3599 38.4554 14.5551 39.0795 14.5551C39.9231 14.5551 40.5472 14.2002 40.9517 13.4905H43.5866C43.3093 14.425 42.7719 15.188 41.9745 15.7795C41.1771 16.3709 40.2121 16.6667 39.0795 16.6667ZM41.3851 10.8112C41.3504 10.1605 41.1135 9.64005 40.6743 9.24968C40.2467 8.85931 39.7267 8.66413 39.1142 8.66413C38.5017 8.66413 37.9874 8.85931 37.5713 9.24968C37.1669 9.64005 36.9242 10.1605 36.8433 10.8112H41.3851Z" fill="currentColor"></path>
<path d="M44.7832 9.56907C44.7832 8.71736 45.1357 8.00169 45.8406 7.42205C46.5456 6.84241 47.4817 6.5526 48.6489 6.5526C49.8161 6.5526 50.7522 6.84241 51.4572 7.42205C52.1622 7.98986 52.5378 8.76468 52.584 9.74651H50.0877C50.0184 8.91846 49.5215 8.50443 48.5969 8.50443C48.1346 8.50443 47.7764 8.59907 47.5221 8.78834C47.2679 8.97761 47.1408 9.23785 47.1408 9.56907C47.1408 9.90029 47.3314 10.1605 47.7128 10.3498C48.0942 10.5391 48.5565 10.6869 49.0996 10.7934C49.6428 10.8999 50.1802 11.0359 50.7118 11.2015C51.255 11.3553 51.7172 11.6392 52.0986 12.0532C52.48 12.4554 52.6707 12.9937 52.6707 13.6679C52.6707 14.5551 52.3008 15.2767 51.5612 15.8327C50.8331 16.3887 49.897 16.6667 48.7529 16.6667C47.6204 16.6667 46.69 16.3946 45.962 15.8504C45.2339 15.2945 44.8352 14.5019 44.7658 13.4727H47.2621C47.3546 14.3008 47.8688 14.7148 48.8049 14.7148C49.2556 14.7148 49.6197 14.6143 49.897 14.4132C50.1744 14.2003 50.3131 13.9282 50.3131 13.597C50.3131 13.2539 50.1224 12.9877 49.741 12.7985C49.3597 12.5974 48.8974 12.4436 48.3542 12.3371C47.811 12.2307 47.2679 12.1005 46.7247 11.9468C46.1931 11.793 45.7366 11.5209 45.3552 11.1305C44.9739 10.7283 44.7832 10.2079 44.7832 9.56907Z" fill="currentColor"></path>
<path d="M56.5875 4.19265C56.5875 4.6185 56.443 4.9793 56.1541 5.27503C55.8652 5.57076 55.5127 5.71863 55.0966 5.71863C54.6922 5.71863 54.3455 5.57076 54.0565 5.27503C53.7676 4.9793 53.6232 4.6185 53.6232 4.19265C53.6232 3.76679 53.7676 3.406 54.0565 3.11026C54.3455 2.81453 54.6922 2.66666 55.0966 2.66666C55.5127 2.66666 55.8652 2.81453 56.1541 3.11026C56.443 3.406 56.5875 3.76679 56.5875 4.19265ZM53.8832 16.5247V6.69455H56.3274V16.5247H53.8832Z" fill="currentColor"></path>
<path d="M64.1805 13.7389C64.689 13.2184 64.9433 12.5087 64.9433 11.6096C64.9433 10.7106 64.689 10.0068 64.1805 9.4981C63.672 8.97761 63.0769 8.71736 62.395 8.71736C61.7132 8.71736 61.118 8.97169 60.6095 9.48035C60.1125 9.98901 59.8641 10.6929 59.8641 11.5919C59.8641 12.4909 60.1183 13.2007 60.6268 13.7212C61.1353 14.2417 61.7247 14.5019 62.395 14.5019C63.0769 14.5019 63.672 14.2476 64.1805 13.7389ZM58.668 15.2471C57.8128 14.289 57.3852 13.0705 57.3852 11.5919C57.3852 10.1132 57.8128 8.90663 58.668 7.97211C59.5232 7.02577 60.6095 6.5526 61.927 6.5526C63.2444 6.5526 64.2499 7.10857 64.9433 8.22053V3.39417H67.3702V16.5247H64.9433V14.8745C64.2152 16.0693 63.204 16.6667 61.9096 16.6667C60.6153 16.6667 59.5347 16.1935 58.668 15.2471Z" fill="currentColor"></path>
<path d="M73.1519 16.6667C71.7535 16.6667 70.6152 16.2053 69.7369 15.2826C68.8585 14.3481 68.4194 13.1179 68.4194 11.5919C68.4194 10.0659 68.8585 8.84748 69.7369 7.93663C70.6267 7.01394 71.7708 6.5526 73.1692 6.5526C74.5791 6.5526 75.7348 7.00211 76.6363 7.90114C77.5377 8.78834 77.9884 9.97718 77.9884 11.4677C77.9884 11.8107 77.9653 12.1301 77.9191 12.4259H70.9156C70.9734 13.0646 71.2046 13.5792 71.6091 13.9696C72.0135 14.3599 72.5278 14.5551 73.1519 14.5551C73.9955 14.5551 74.6196 14.2002 75.0241 13.4905H77.659C77.3817 14.425 76.8443 15.188 76.0469 15.7795C75.2494 16.3709 74.2844 16.6667 73.1519 16.6667ZM75.4575 10.8112C75.4228 10.1605 75.1859 9.64005 74.7467 9.24968C74.3191 8.85931 73.7991 8.66413 73.1866 8.66413C72.574 8.66413 72.0598 8.85931 71.6437 9.24968C71.2392 9.64005 70.9965 10.1605 70.9156 10.8112H75.4575Z" fill="currentColor"></path>
<path d="M81.4905 6.69455V8.43346C82.1377 7.17955 83.0738 6.5526 84.2988 6.5526V9.10773H83.6921C82.964 9.10773 82.415 9.297 82.0452 9.67554C81.6754 10.0422 81.4905 10.681 81.4905 11.5919V16.5247H79.0462V6.69455H81.4905Z" fill="currentColor"></path>
</svg>