<svg width="52" height="62" viewBox="0 0 52 62" fill="none" xmlns="http://www.w3.org/2000/svg">
<g clip-path="url(#clip0_535_53)">
<path d="M48.5944 8.14286C42.9239 -0.0522635 31.6348 -2.45338 23.5191 2.71424L9.2127 11.9011C5.31095 14.3544 2.60573 18.3737 1.82538 22.915C1.14908 26.7254 1.72133 30.6403 3.54215 34.0332C2.29359 35.9123 1.46122 38.0002 1.09705 40.1926C0.264679 44.8382 1.35717 49.6404 4.06239 53.4509C9.78496 61.646 21.022 64.0471 29.1377 58.8795L43.4441 49.7448C47.3458 47.2915 50.0511 43.2723 50.8314 38.731C51.5077 34.9205 50.9355 31.0057 49.1146 27.6128C50.3632 25.7337 51.1956 23.6457 51.5597 21.4534C52.4441 16.7556 51.3516 11.9533 48.5944 8.14286Z" fill="#FF3E00"/>
<path d="M22.1144 54.2338C17.4843 55.4344 12.6462 53.6074 9.94095 49.6926C8.2762 47.3959 7.65192 44.525 8.12013 41.7063C8.22418 41.2365 8.32822 40.8189 8.43227 40.3491L8.69239 39.5139L9.42071 40.0359C11.1375 41.2887 13.0103 42.2282 15.0392 42.8546L15.5595 43.0112L15.5074 43.5332C15.4554 44.264 15.6635 45.0469 16.0797 45.6733C16.9121 46.8739 18.3687 47.4481 19.7734 47.0827C20.0855 46.9783 20.3976 46.8739 20.6578 46.7173L34.9122 37.5826C35.6405 37.1128 36.1087 36.4342 36.2648 35.5991C36.4208 34.7639 36.2128 33.8765 35.7445 33.1979C34.9122 31.9974 33.4555 31.4754 32.0509 31.8408C31.7387 31.9452 31.4266 32.0496 31.1665 32.2062L25.704 35.7035C24.8196 36.2776 23.8312 36.6952 22.7907 36.9562C18.1606 38.1568 13.3225 36.3298 10.6173 32.415C9.00453 30.1183 8.32822 27.2474 8.84846 24.4286C9.31667 21.7143 10.9814 19.261 13.3225 17.7995L27.6289 8.66479C28.5133 8.09061 29.5017 7.67302 30.5422 7.35983C35.1723 6.15927 40.0105 7.98621 42.7157 11.9011C44.3804 14.1978 45.0047 17.0687 44.5365 19.8874C44.4325 20.3572 44.3284 20.7748 44.1723 21.2446L43.9122 22.0797L43.1839 21.5577C41.4671 20.305 39.5943 19.3654 37.5654 18.739L37.0451 18.5824L37.0972 18.0605C37.1492 17.3297 36.9411 16.5467 36.5249 15.9203C35.6925 14.7198 34.2359 14.1978 32.8312 14.5632C32.5191 14.6676 32.207 14.772 31.9468 14.9286L17.6924 24.0633C16.9641 24.533 16.4959 25.2116 16.3398 26.0468C16.1838 26.882 16.3918 27.7693 16.8601 28.4479C17.6924 29.6485 19.1491 30.1705 20.5537 29.8051C20.8659 29.7007 21.178 29.5963 21.4381 29.4397L26.9006 25.9424C27.785 25.3682 28.7734 24.9506 29.8139 24.6374C34.444 23.4369 39.2821 25.2638 41.9874 29.1787C43.6521 31.4754 44.2764 34.3463 43.8082 37.165C43.34 39.8793 41.6752 42.3326 39.3342 43.7942L25.0277 52.9289C24.1433 53.5031 23.1549 53.9206 22.1144 54.2338Z" fill="white"/>
</g>
<defs>
<clipPath id="clip0_535_53">
<rect width="51.0349" height="61.5939" fill="white" transform="translate(0.836914)"/>
</clipPath>
</defs>
</svg>
