<svg width="49" height="49" viewBox="0 0 49 49" fill="none" xmlns="http://www.w3.org/2000/svg">
<g clip-path="url(#clip0_535_56)">
<path d="M43.6667 0.59375H5.04175C2.45291 0.59375 0.354248 2.69242 0.354248 5.28125V43.9062C0.354248 46.4951 2.45291 48.5938 5.04175 48.5938H43.6667C46.2556 48.5938 48.3542 46.4951 48.3542 43.9062V5.28125C48.3542 2.69242 46.2556 0.59375 43.6667 0.59375Z" fill="#3178C6"/>
<path d="M43.6667 0.59375H5.04175C2.45291 0.59375 0.354248 2.69242 0.354248 5.28125V43.9062C0.354248 46.4951 2.45291 48.5938 5.04175 48.5938H43.6667C46.2556 48.5938 48.3542 46.4951 48.3542 43.9062V5.28125C48.3542 2.69242 46.2556 0.59375 43.6667 0.59375Z" fill="#3178C6"/>
<path fill-rule="evenodd" clip-rule="evenodd" d="M30.0673 38.7898V43.483C30.8302 43.8741 31.7326 44.1673 32.7743 44.3629C33.8161 44.5585 34.914 44.6562 36.0682 44.6562C37.1931 44.6562 38.2617 44.5487 39.2741 44.3336C40.2865 44.1185 41.1742 43.764 41.9372 43.2703C42.7001 42.7766 43.3041 42.1312 43.7492 41.3343C44.1942 40.5374 44.4167 39.5524 44.4167 38.3791C44.4167 37.5284 44.2896 36.7829 44.0353 36.1425C43.7809 35.5021 43.4142 34.9326 42.9348 34.4339C42.4556 33.9353 41.8809 33.4879 41.2109 33.0919C40.5408 32.6959 39.7852 32.3219 38.944 31.97C38.3278 31.7157 37.7751 31.4689 37.286 31.2294C36.7969 30.9897 36.3812 30.7453 36.0389 30.4961C35.6965 30.2467 35.4324 29.9827 35.2466 29.7041C35.0608 29.4253 34.9678 29.1101 34.9678 28.758C34.9678 28.4354 35.0509 28.1445 35.2172 27.8854C35.3836 27.6263 35.6183 27.4039 35.9215 27.2181C36.2248 27.0324 36.5964 26.8881 37.0366 26.7854C37.4768 26.6828 37.9658 26.6315 38.5038 26.6315C38.8951 26.6315 39.3083 26.6608 39.7436 26.7194C40.1789 26.7781 40.6166 26.8686 41.0568 26.9907C41.497 27.113 41.9249 27.267 42.3407 27.4528C42.7563 27.6386 43.1402 27.8536 43.4924 28.0981V23.7129C42.7784 23.4391 41.9983 23.2362 41.1522 23.1042C40.3061 22.9722 39.3352 22.9062 38.2397 22.9062C37.1246 22.9062 36.0682 23.0261 35.0705 23.2656C34.0728 23.5051 33.195 23.8791 32.4368 24.3875C31.6787 24.896 31.0797 25.5437 30.6395 26.3308C30.1994 27.1179 29.9792 28.0589 29.9792 29.154C29.9792 30.5522 30.3827 31.7451 31.1897 32.7327C31.9967 33.7201 33.2218 34.5561 34.8651 35.2406C35.5107 35.5046 36.1123 35.7636 36.6698 36.0178C37.2273 36.2721 37.7091 36.5361 38.115 36.8098C38.5209 37.0836 38.8412 37.3818 39.0761 37.7045C39.3108 38.0271 39.4282 38.3937 39.4282 38.8045C39.4282 39.1076 39.3548 39.3886 39.2081 39.6477C39.0614 39.9069 38.8388 40.1317 38.5405 40.3224C38.2422 40.5131 37.8705 40.6621 37.4254 40.7697C36.9803 40.8773 36.4595 40.931 35.8628 40.931C34.8455 40.931 33.8381 40.7526 32.8403 40.3957C31.8426 40.0389 30.9182 39.5036 30.0673 38.7898ZM22.1774 27.2264H28.198V23.375H11.4167V27.2264H17.4079V44.375H22.1774V27.2264Z" fill="white"/>
</g>
<defs>
<clipPath id="clip0_535_56">
<rect width="48" height="48" fill="white" transform="translate(0.354248 0.59375)"/>
</clipPath>
</defs>
</svg>
